<?xml version="1.0" encoding="utf-8"?>
<!-- Generator: Adobe Illustrator 16.0.0, SVG Export Plug-In . SVG Version: 6.00 Build 0)  -->
<!DOCTYPE svg PUBLIC "-//W3C//DTD SVG 1.1 Tiny//EN" "http://www.w3.org/Graphics/SVG/1.1/DTD/svg11-tiny.dtd">
<svg version="1.1" baseProfile="tiny" id="Calque_1"
	 xmlns="http://www.w3.org/2000/svg" xmlns:xlink="http://www.w3.org/1999/xlink" x="0px" y="0px" width="400px" height="441.075px"
	 viewBox="0 0 400 441.075" xml:space="preserve">
<g>
	<g>
		<path fill="#F7931E" d="M295.218,141.245c12.057-12.486,22.024-27.168,29.764-44.057c7.818-17.066,15.104-34.488,21.065-52.7
			c2.498-7.634,4.673-15.412,5.948-23.526c0.511-3.255,0.945-6.525,0.264-9.834c-0.085-0.415-0.198-0.828-0.342-1.217
			c-0.697-1.875-1.895-2.633-3.41-1.795c-1.419,0.785-2.779,1.811-4.032,2.954c-7.64,6.97-15.228,14.029-22.868,20.999
			c-1.774,1.619-3.688,3.01-5.621,4.447c5.445-11.298,7.407-23.498,6.555-36.453c-0.082-0.021-0.164-0.042-0.246-0.063
			c-0.248,1.698-0.504,3.396-0.742,5.095c-0.907,6.465-2.077,12.827-4.577,18.698c-1.986,4.666-4.895,8.403-7.918,12.01
			c-6.253,7.461-13.792,12.323-21.79,16.194c-5.609,2.717-11.362,4.873-17.303,6.206c-3.486,0.782-7.003,0.905-10.526,0.681
			c-0.577-0.037-1.246-0.426-1.683-0.912c-3.373-3.766-6.638-7.682-10.057-11.381c-4.652-5.037-9.872-8.888-15.911-10.857
			c-0.358-0.117-0.72-0.217-1.196-0.125c0.246,0.242,0.485,0.497,0.738,0.726c3.421,3.078,6.779,6.245,9.557,10.239
			c1.997,2.875,3.534,6.049,4.305,9.768c0.201,0.969-0.027,1.355-0.69,1.707c-4.734,2.503-9.669,3.53-14.811,3.346
			c-7.557-0.27-13.802-4.12-19.188-10.439c-1.69-1.983-3.404-3.937-5.067-5.953c-0.087-0.105-0.163-0.254-0.222-0.42
			c-0.005,0.035-0.01,0.072-0.015,0.108c-0.044,0.313-0.084,0.629-0.126,0.943c-0.042,0.32-0.082,0.641-0.122,0.962
			c0.144,0.248,0.288,0.496,0.43,0.747c7.738,13.679,17.944,23.134,31.031,27.599c4.251,1.45,8.587,2.201,13.02,1.998
			c6.36-0.293,12.472-2.066,18.507-4.447c11.719-4.623,22.873-10.781,33.425-18.594c1.339-0.991,2.587-2.168,3.948-3.319
			c-2.703,3.304-4.518,7.171-5.849,11.65c4.176-0.196,7.685-1.95,10.724-5.291c0.01,0.161,0.037,0.248,0.016,0.279
			c-5.265,7.327-10.51,14.679-16.706,20.86c-5.857,5.844-12.442,10.135-19.417,13.482c-7.099,3.405-14.294,6.499-21.422,9.811
			c-6.771,3.145-13.334,6.822-19.309,11.947c-4.361,3.74-8.254,8.101-11.503,13.311c-0.043,0.069-0.09,0.137-0.143,0.211
			c8.532,31.545,27.379,36.944,46.593,37.928c1.764-1.467,3.429-2.875,5.116-4.236C280.902,154.487,288.345,148.365,295.218,141.245
			z M321.524,40.369c0.379-1.892,2.649-3.891,4.42-3.74c-0.161,1.669-0.847,2.885-1.837,3.788c-0.538,0.49-1.23,0.789-1.89,0.991
			C321.605,41.596,321.378,41.097,321.524,40.369z M303.599,134.371c-2.246,11.261-3.428,22.507-6.705,33.22
			c-2.49,0.271-5.012,0.408-7.56,0.408c-0.482,0-0.964-0.006-1.445-0.016c0.042-0.109,0.071-0.246,0.082-0.422
			c0.089-1.434,0.233-2.861,0.349-4.292c0.342-4.294,0.662-8.591,1.046-12.879c0.051-0.566,0.316-1.237,0.66-1.609
			c4.249-4.608,8.531-9.172,12.808-13.743C302.997,134.864,303.187,134.728,303.599,134.371z"/>
	</g>
	<g>
		<path fill="#FFFFFF" d="M202.14,101.589c11.938,25.909,28.005,33.004,53.714,33.004c15.149,0,25.709-1.852,40.4-4.01
			c19.739-3.395,28.005-4.01,35.349-4.01c23.873,0,42.695,8.327,55.549,22.825c14.232,16.347,13.314,37.939,12.396,65.392h-14.691
			c-5.049-17.891-21.118-43.139-47.285-43.139c-11.936,0-64.273,4.627-75.29,4.318c-43.153,0-56.009-15.732-66.567-36.397
			c-14.232,28.069-26.168,36.397-56.009,36.397c-11.019,0-59.682-3.393-69.781-3.086c-28.922,0-44.531,17.229-55.09,41.906H0.144
			c-0.46-24.059-0.919-53.67,17.444-70.635c17.446-15.424,39.481-16.657,50.959-16.657c11.476,0,27.086,2.159,44.99,4.317
			c16.986,2.16,22.495,2.777,28.923,2.777c6.886,0,17.904,0,30.299-10.797c10.1-8.326,14.232-15.731,17.904-22.207H202.14z"/>
	</g>
	<g>
		<g>
			<g>
				<path fill="#FFFFFF" d="M85.211,425.353c0.105,4.134-0.344,6.639-3.393,8.677c-5.145,3.44-10.567,5.594-16.495,5.567
					c-11.45-0.051-21.478-6.458-26.767-19.32c-4.478-10.889-5.8-24.012-5.749-36.023c0.075-17.638,2.206-39.076,14.514-49.939
					c4.636-4.092,10.136-6.671,15.929-6.549c7.446,0.156,16.289,2.256,22.338,7.695c0.841,0.755,0.848,1.473,0.848,1.965
					c0,0.818-0.188,1.965-0.471,3.765c-1.288,7.041-2.577,14.081-3.864,21.122c-4.262-4.756-9.241-8.657-15.175-8.678
					c-12.523-0.044-15.363,17.955-15.363,30.129c0,11.939,2.412,29.748,14.798,29.638c7.209-0.064,13.564-6.161,18.851-11.626
					C85.211,409.634,85.211,417.493,85.211,425.353z"/>
				<path fill="#FFFFFF" d="M118.199,329.075c-3.114,8.55-3.427,17.398-3.487,26.688c0,18.557,0,37.115,0,55.673
					c0.024,9.248,0.061,18.318,3.299,26.851c-8.326,0-16.652,0-24.979,0c3.22-8.513,3.258-17.605,3.299-26.851
					c0-18.558,0-37.116,0-55.673c-0.06-9.253-0.296-18.196-3.487-26.688C101.295,329.075,109.747,329.075,118.199,329.075z"/>
				<path fill="#FFFFFF" d="M147.512,411.436c0.024,9.238,0.066,18.325,3.299,26.851c-8.043,0-16.087,0.002-24.13,0
					c3.262-8.512,3.261-17.591,3.299-26.851c0-18.667,0-37.333,0-56.001c-0.06-9.252-3.487-26.688-3.487-26.688
					c0.31-0.545,8.051,0.492,12.065,0.49c4.76-0.002,9.557-0.143,14.328-0.162c15.892-0.066,22.907,17.105,22.717,34.547
					c-0.111,10.208-7.43,23.645-7.918,27.673c-0.717,5.911,10.688,26.105,21.02,33.729c-4.335,4.148-8.672,8.296-13.008,12.443
					c-1.792,1.637-3.555,2.369-4.619,2.293c-5.162-0.368-9.187-12.335-11.264-17.438c-3.205-7.872-6.389-22.804-8.436-24.315
					c-0.609-0.45-2.451,0.164-3.865-0.001C147.512,402.483,147.512,406.96,147.512,411.436z M147.041,374.757
					c2.167,0.326,2.925,0.322,3.582,0.326c5.575,0.035,9.525-4.583,9.521-11.625c-0.005-7.258-3.92-12.464-9.804-12.443
					c-1.033,0.004-1.884,0.163-3.298,0.491C147.041,359.256,147.041,367.006,147.041,374.757z"/>
				<path fill="#FFFFFF" d="M239.885,425.353c0.105,4.134-0.345,6.639-3.394,8.677c-5.146,3.44-10.568,5.593-16.496,5.567
					c-11.451-0.051-21.479-6.457-26.77-19.32c-4.479-10.889-5.801-24.012-5.75-36.023c0.074-17.636,2.207-39.078,14.516-49.939
					c4.637-4.092,10.137-6.67,15.931-6.549c7.446,0.155,16.29,2.256,22.34,7.695c0.841,0.756,0.849,1.473,0.849,1.965
					c0,0.818-0.189,1.964-0.472,3.765c-1.288,7.041-2.577,14.081-3.864,21.122c-4.263-4.756-9.243-8.656-15.176-8.678
					c-12.521-0.045-15.364,17.959-15.365,30.129c0,11.938,2.413,29.749,14.799,29.638c7.211-0.065,13.565-6.161,18.853-11.626
					C239.885,409.634,239.885,417.493,239.885,425.353z"/>
				<path fill="#FFFFFF" d="M290.5,355.927c-0.057-9.355-0.356-18.241-3.487-26.852c8.421,0,16.841,0,25.261,0
					c-3.199,8.545-3.432,17.545-3.487,26.852c0,16.975,0,33.949,0,50.924c0.077,9.484,0.114,19.914,5.938,27.016
					c-6.348,1.965-12.693,3.93-19.04,5.895c-1.169-2.357-1.753-3.536-2.922-5.895c-4.582,5.23-9.777,7.066-15.836,7.203
					c-7.214,0.164-14.006-3.023-19.417-8.84c-8.648-9.299-9.883-25.205-9.896-38.643c-0.014-13.83,1.404-27.754,2.827-41.59
					c0.497-4.835,1.091-9.784,1.037-14.572c-0.031-2.764-0.231-5.561-0.565-8.35c7.604,0,15.207,0,22.811,0
					c-4.468,19.525-8.539,39.545-8.577,59.928c-0.021,11.485,2.075,25.555,13.667,25.543c4.446-0.005,8.595-2.248,11.688-6.222
					C290.5,390.858,290.5,373.393,290.5,355.927z"/>
				<path fill="#FFFFFF" d="M323.11,405.704c4.665,5.049,9.82,8.493,15.929,8.842c3.996,0.228,6.651-3.902,6.691-8.678
					c0.063-7.554-7.224-13.399-11.216-17.85c-7.335-8.175-12.323-16.21-12.159-28.818c0.228-17.379,8.511-31.498,23.47-31.436
					c5.628,0.023,11.407,1.635,16.305,4.584c1.483,0.894,1.508,2.291,1.508,3.111c0,0.982,0,1.473-0.471,4.912
					c-0.88,6.058-1.761,12.116-2.64,18.174c-4.111-3.418-8.707-6.639-13.76-6.713c-2.818-0.042-5.161,2.525-5.184,6.059
					c-0.027,4.232,3.07,7.453,5.372,9.988c5.44,5.989,12.3,12.029,15.456,20.468c1.956,5.228,2.663,11.034,2.733,16.701
					c0.21,16.77-8.222,34.918-23.185,34.548c-6.131-0.152-14.386-1.421-19.039-6.55c-1.221-1.345-1.226-3.11-1.226-3.929
					c0-1.31,0.188-3.93,0.188-4.748C322.292,418.147,322.702,411.927,323.11,405.704z"/>
			</g>
		</g>
		<g>
			<g>
				<path fill="#1FA597" d="M77.991,309.007c-0.916,0-1.374,0-2.291,0c-10.552-26.899-21.409-53.242-33.641-79.061
					c-2.583-5.348-5.064-11.637-9.25-15.394c9.093-8.26,19.065-12.278,30.234-13.722c-0.301,1.146-0.654,1.89-0.59,3.088
					c0.13,2.422,1.437,4.844,2.355,7.112c5.773,14.649,8.854,30.368,13.736,45.524c3.965-10.414,8.334-20.494,13.238-30.28
					c-1.533-3.553-3.065-7.106-4.592-10.663c-2.403-5.259-5.022-10.311-8.152-14.962c13.345,0.509,26.682,1.339,40.02,2.052
					c-1.131,1.824-1.52,2.589-1.656,4.622c-0.126,1.878,0.113,3.303,0.486,5.047c4.354,15.45,7.818,31.157,10.783,47.097
					c3.095-6.963,5.526-14.271,8.467-21.295c3.522-8.412,8.519-16.172,12.614-24.182c1.056-2.215,2.105-4.566,2.412-7.037
					c0.149-1.195-0.073-2.306-0.515-3.957c10.696-1.364,20.166-4.56,28.77-12.77c-4.134,11.346-8.431,22.573-13.007,33.657
					c-12.632,29.849-29.323,57.2-44.491,85.122c-0.917,0-1.375,0.001-2.292,0.001c-5.183-19.355-10.974-38.271-18.039-56.706
					C93.119,270.434,85.379,289.481,77.991,309.007z"/>
				<path fill="#1FA597" d="M201.673,177.628c-2.08,9.259-1.376,19.248-1.053,28.717c0.853,22.505,1.706,45.011,2.561,67.516
					c0.451,11.336,0.835,22.633,5.646,32.633c-11.165-0.165-22.306,0.049-33.469,0.221c4.699-9.055,5.163-19.4,5.629-29.891
					c0.831-20.608,1.66-41.217,2.489-61.825c0.286-8.299,1.307-18.172-2.063-25.808c5.665-6.523,10.093-13.907,14.312-21.898
					C197.564,170.877,199.558,174.286,201.673,177.628z"/>
				<path fill="#1FA597" d="M267.414,283.112c3.818-0.103,7.362-0.66,11.041-1.917c-0.227,5.959-0.451,11.919-0.68,17.878
					c-0.062,5.4-0.472,8.019-5.201,7.92c-7.346-0.153-14.908-0.316-22.341-0.377c-9.911-0.081-29.535,0.523-29.795,0.036
					c-0.743-1.396,2.131-19.066,1.005-28.98c-2.363-20.065-4.727-40.132-7.091-60.197c-1.351-11.028-3.384-21.409-6.459-31.87
					c8.909,9.559,20.061,13.681,31.482,16.074c-4.626,7.246-3.108,16.252-1.907,24.728c2.817,18.64,5.636,37.28,8.453,55.921
					C253.083,282.821,260.242,283.069,267.414,283.112z"/>
				<path fill="#1FA597" d="M321.445,200.028c10.266-0.596,21.067-0.961,29.177,8.117c10.464,11.714,14.52,31.633,14.523,48.544
					c0.005,19.903-7.278,36.511-21.988,45.086c-8.077,4.709-17.396,5.174-26.241,5.155c-6.623-0.015-13.27-0.27-19.888-0.279
					c-4.335-0.007-13.021,0.344-13.024,0.334c-0.534-1.063,2.938-16.633,2.205-25.6c-1.574-17.791-3.147-35.582-4.721-53.374
					c-0.949-9.556-7.675-25.122-7.675-25.122c0.194-0.523,10.902-0.338,16.339-0.712
					C300.583,201.464,311.012,200.706,321.445,200.028z M312.904,282.554c6.432-0.068,14.637,0.707,20.259-3.967
					c6.327-5.26,7.304-17.004,7.306-25.531c0.002-13.623-3.214-30.013-16.406-29.295c-3.861,0.21-7.714,0.64-11.562,1.1
					C312.635,244.091,312.769,263.323,312.904,282.554z"/>
			</g>
		</g>
	</g>
</g>
<g>
</g>
<g>
</g>
<g>
</g>
<g>
</g>
<g>
</g>
<g>
</g>
<g>
</g>
<g>
</g>
<g>
</g>
<g>
</g>
<g>
</g>
<g>
</g>
<g>
</g>
<g>
</g>
<g>
</g>
</svg>
